<?xml version="1.0" encoding="UTF-8" standalone="no"?>
<!-- Created with Inkscape (http://www.inkscape.org/) -->

<svg
   width="388.05179mm"
   height="123.49733mm"
   viewBox="0 0 388.05179 123.49733"
   version="1.1"
   id="svg1"
   sodipodi:docname="TwitSky logo dark.svg"
   inkscape:export-filename="TwitSky logo dark.sg"
   inkscape:export-xdpi="96"
   inkscape:export-ydpi="96"
   xmlns:inkscape="http://www.inkscape.org/namespaces/inkscape"
   xmlns:sodipodi="http://sodipodi.sourceforge.net/DTD/sodipodi-0.dtd"
   xmlns:xlink="http://www.w3.org/1999/xlink"
   xmlns="http://www.w3.org/2000/svg"
   xmlns:svg="http://www.w3.org/2000/svg">
  <sodipodi:namedview
     id="namedview1"
     pagecolor="#ffffff"
     bordercolor="#000000"
     borderopacity="0.25"
     inkscape:showpageshadow="2"
     inkscape:pageopacity="0.0"
     inkscape:pagecheckerboard="0"
     inkscape:deskcolor="#d1d1d1"
     inkscape:document-units="mm">
    <inkscape:page
       x="0"
       y="0"
       width="388.05179"
       height="123.49733"
       id="page2"
       margin="0"
       bleed="0" />
  </sodipodi:namedview>
  <defs
     id="defs1">
    <linearGradient
       inkscape:collect="always"
       xlink:href="#linearGradient1"
       id="linearGradient2"
       x1="-22.197647"
       y1="83.17424"
       x2="-7.1932154"
       y2="94.744263"
       gradientUnits="userSpaceOnUse" />
    <linearGradient
       id="linearGradient1"
       inkscape:collect="always">
      <stop
         style="stop-color:#000000;stop-opacity:1;"
         offset="0"
         id="stop1" />
      <stop
         style="stop-color:#029bff;stop-opacity:1;"
         offset="1"
         id="stop2" />
    </linearGradient>
  </defs>
  <g
     inkscape:label="Layer 1"
     inkscape:groupmode="layer"
     id="layer1"
     transform="translate(79.904171,-183.88542)">
    <g
       id="g2"
       transform="matrix(1.3371655,0,0,1.3371655,-14.901851,102.66851)"
       style="display:inline;fill:#029bff;fill-opacity:1">
      <path
         id="path2501"
         style="display:inline;fill:url(#linearGradient2);fill-opacity:1;stroke-width:3.43082"
         d="M -47.688988,60.73819 -19.707259,97.328087 -38.485314,124.53 h 11.356141 L -9.9595275,99.173966 -34.435768,67.174507 h 6.748392 l 20.4941606,27.569758 3.8367554,-6.10647 1.3099967,1.524094 -6.0542627,-8.04602 -1.2287955,-1.624744 -14.9406215,-19.752927 z"
         sodipodi:nodetypes="cccccccccccccc" />
      <path
         id="path1-2"
         style="display:inline;fill:#029bff;fill-opacity:1;stroke:none;stroke-width:0.0661458;stroke-linecap:butt;stroke-linejoin:miter;stroke-dasharray:none;stroke-opacity:1"
         d="M 26.178503,60.739653 C 19.882802,60.84944 11.498061,65.994981 5.6134481,75.40282 -0.7270909,85.539556 -4.5430683,90.161889 -4.5430683,90.161889 l -5.4137857,9.012077 c 0,0 9.41434078,24.369214 17.6219558,25.289584 4.5123032,0.506 7.6945272,-1.95664 10.8592582,-4.70356 4.523539,-3.92635 7.311034,-9.77589 3.539133,-14.35792 -3.653604,-4.43831 -10.922161,-5.524715 -10.922161,-5.524715 0,0 8.863262,1.164805 14.381081,-3.744664 2.813943,-2.503707 4.392259,-5.777619 4.783535,-9.565363 0.503315,-4.8723 1.324335,-14.841472 1.380935,-18.521935 0.06401,-4.16083 -1.513376,-6.942333 -4.262027,-7.248445 -0.41107,-0.04578 -0.826639,-0.06462 -1.246353,-0.0573 z"
         sodipodi:nodetypes="ssccssscssssss" />
    </g>
    <path
       style="font-size:292.952px;line-height:1;font-family:'Helvetica Neue';-inkscape-font-specification:'Helvetica Neue';letter-spacing:0px;word-spacing:0px;display:inline;fill:#35424f;stroke-width:10.3808;stroke-linejoin:round;paint-order:stroke markers fill"
       d="m 44.845459,197.95383 h 44.800906 v 8.3711 h -17.59482 v 46.97119 H 62.362768 V 206.32493 H 44.845459 Z m 37.747501,15.26951 h 9.378735 l 7.828532,29.91894 h 0.155022 l 7.518491,-29.91894 h 8.91367 l 7.20846,29.91894 h 0.15502 l 8.13856,-29.91894 h 8.9912 l -12.55668,40.07278 h -9.06867 l -7.44099,-29.76392 h -0.15502 l -7.36347,29.76392 h -9.301226 z m 64.17845,-15.26951 h 8.83616 v 8.3711 h -8.83616 z m 0,15.26951 h 8.83616 v 40.07278 h -8.83616 z m 14.41683,0 h 6.66589 v -12.01409 h 8.83615 v 12.01409 h 7.98357 v 6.58837 h -7.98357 v 21.39282 q 0,1.39518 0.0775,2.40281 0.15502,1.00764 0.54258,1.70523 0.46505,0.69759 1.31765,1.08514 0.85262,0.31004 2.32532,0.31004 0.93011,0 1.86025,0 0.93012,-0.0775 1.86024,-0.31004 v 6.8209 q -1.4727,0.15502 -2.86787,0.31004 -1.39521,0.15502 -2.86788,0.15502 -3.48797,0 -5.65824,-0.62008 -2.09278,-0.69759 -3.33296,-1.93776 -1.16266,-1.31767 -1.62772,-3.25543 -0.38753,-1.93775 -0.46505,-4.41808 v -23.64061 h -6.66589 z m 36.50734,27.20608 q 0.38756,3.87551 2.94539,5.42572 2.55784,1.5502 6.12331,1.5502 1.24015,0 2.79035,-0.15502 1.62771,-0.23253 3.02292,-0.7751 1.39517,-0.54257 2.24779,-1.5502 0.93012,-1.08515 0.85262,-2.79037 -0.0775,-1.70523 -1.24018,-2.79037 -1.16266,-1.08514 -3.02289,-1.70522 -1.78274,-0.6976 -4.10806,-1.16266 -2.32529,-0.46506 -4.7281,-1.00763 -2.48034,-0.54257 -4.80565,-1.31767 -2.2478,-0.77511 -4.10803,-2.09278 -1.78274,-1.31767 -2.86787,-3.33294 -1.08516,-2.09277 -1.08516,-5.11567 0,-3.25543 1.55022,-5.42572 1.62771,-2.24779 4.03053,-3.56547 2.48031,-1.39518 5.4257,-1.93775 3.02289,-0.54258 5.73577,-0.54258 3.10039,0 5.89076,0.6976 2.86787,0.62008 5.1157,2.09277 2.32529,1.4727 3.79798,3.87552 1.5502,2.3253 1.93776,5.65824 h -9.22372 q -0.62008,-3.17792 -2.94539,-4.26306 -2.2478,-1.08515 -5.19317,-1.08515 -0.93014,0 -2.24782,0.15503 -1.24015,0.15502 -2.40281,0.62008 -1.08514,0.38755 -1.86023,1.24016 -0.7751,0.7751 -0.7751,2.09278 0,1.62771 1.08514,2.63534 1.16265,1.00764 2.94539,1.70523 1.86023,0.62008 4.18555,1.08514 2.32529,0.46506 4.80563,1.00764 2.40281,0.54257 4.72813,1.31767 2.32529,0.7751 4.10802,2.09277 1.86026,1.31768 2.9454,3.33294 1.16266,2.01527 1.16266,4.96066 0,3.56547 -1.62772,6.04579 -1.62772,2.48033 -4.26307,4.03054 -2.55784,1.5502 -5.73575,2.24779 -3.17791,0.69759 -6.27832,0.69759 -3.79801,0 -7.05345,-0.85261 -3.17791,-0.85261 -5.58072,-2.55784 -2.32532,-1.78273 -3.72049,-4.34057 -1.31768,-2.63535 -1.39518,-6.20082 z m 33.79438,-42.47559 h 8.83616 v 31.46914 l 15.9671,-16.19963 h 10.85144 l -15.34703,14.72694 16.81972,25.34584 h -10.77391 l -12.24664,-19.45507 -5.27068,5.11568 v 14.33939 h -8.83616 z m 36.97243,15.26951 h 9.68877 l 10.46388,29.91894 h 0.15502 l 10.15383,-29.91894 h 9.22372 l -15.57954,42.24307 q -1.08516,2.71285 -2.1703,5.19318 -1.00764,2.48033 -2.55783,4.34057 -1.4727,1.93776 -3.72049,3.0229 -2.24779,1.16265 -5.73574,1.16265 -3.10042,0 -6.12334,-0.46506 v -7.44098 q 1.08517,0.15502 2.09278,0.31004 1.00764,0.23253 2.0928,0.23253 1.55019,0 2.55783,-0.38755 1.00762,-0.38755 1.62772,-1.16265 0.69757,-0.69759 1.16263,-1.70523 0.46509,-1.00763 0.85262,-2.3253 l 1.00764,-3.10041 z"
       id="text2"
       aria-label="Twitsky" />
    <path
       d="m -79.904171,281.52231 h 16.264784 v 3.0391 h -6.387726 v 17.05269 h -3.517472 v -17.05269 h -6.359586 z m 13.704076,5.54353 h 3.404909 l 2.842117,10.86195 h 0.05628 l 2.729555,-10.86195 h 3.236074 l 2.616996,10.86195 h 0.05628 l 2.954676,-10.86195 h 3.264212 l -4.558641,14.54826 h -3.292353 l -2.701417,-10.80567 h -0.05628 l -2.673276,10.80567 h -3.376771 z m 23.299716,-5.54353 h 3.207932 v 3.0391 h -3.207932 z m 0,5.54353 h 3.207932 v 14.54826 h -3.207932 z m 5.233976,0 h 2.42002 v -4.36166 h 3.207932 v 4.36166 h 2.898397 v 2.39188 h -2.898397 v 7.76658 q 0,0.50651 0.02814,0.87233 0.05628,0.36582 0.196977,0.61907 0.168838,0.25326 0.478377,0.39396 0.309536,0.11256 0.844193,0.11256 0.337677,0 0.675354,0 0.337677,-0.0281 0.675354,-0.11256 v 2.4763 q -0.534657,0.0563 -1.041172,0.11256 -0.506516,0.0563 -1.04117,0.0563 -1.266291,0 -2.054204,-0.22512 -0.759772,-0.25326 -1.210008,-0.70349 -0.422098,-0.47838 -0.590937,-1.18187 -0.140697,-0.7035 -0.168838,-1.60397 v -8.58263 h -2.42002 z m 9.370545,0 h 2.420019 v -4.36166 h 3.207933 v 4.36166 h 2.898396 v 2.39188 h -2.898396 v 7.76658 q 0,0.50651 0.02814,0.87233 0.05628,0.36582 0.196977,0.61907 0.168838,0.25326 0.478377,0.39396 0.309536,0.11256 0.844193,0.11256 0.337677,0 0.675354,0 0.337677,-0.0281 0.675354,-0.11256 v 2.4763 q -0.534657,0.0563 -1.041172,0.11256 -0.506516,0.0563 -1.04117,0.0563 -1.266291,0 -2.054204,-0.22512 -0.759772,-0.25326 -1.210008,-0.70349 -0.422098,-0.47838 -0.590937,-1.18187 -0.140697,-0.7035 -0.168838,-1.60397 v -8.58263 h -2.420019 z m 20.8234299,5.99377 q -0.056279,-0.75977 -0.3376771,-1.46326 -0.2532565,-0.7035 -0.7316338,-1.21001 -0.4502361,-0.53466 -1.1255904,-0.8442 -0.6472136,-0.33767 -1.4632676,-0.33767 -0.844193,0 -1.547685,0.30953 -0.675355,0.2814 -1.18187,0.81606 -0.478378,0.50651 -0.787914,1.21001 -0.281397,0.70349 -0.309538,1.51954 z m -7.4851759,2.11048 q 0,0.8442 0.225118,1.63211 0.253259,0.78791 0.731634,1.37885 0.478377,0.59093 1.210011,0.95675 0.731633,0.33768 1.744665,0.33768 1.4069877,0 2.2511805,-0.59094 0.8723312,-0.61907 1.294429,-1.82908 h 3.039094 q -0.2532591,1.18187 -0.8723338,2.11048 -0.6190748,0.92861 -1.491406,1.57583 -0.8723339,0.61907 -1.9697832,0.92861 -1.0693109,0.33768 -2.2511805,0.33768 -1.716527,0 -3.039094,-0.5628 -1.32257,-0.56279 -2.251181,-1.57582 -0.900473,-1.01304 -1.37885,-2.42002 -0.450236,-1.40699 -0.450236,-3.09538 0,-1.54768 0.478377,-2.92653 0.506516,-1.40699 1.406988,-2.44816 0.928611,-1.06931 2.22304,-1.68839 1.294429,-0.61907 2.926535,-0.61907 1.7165268,0 3.0672353,0.73163 1.3788469,0.7035 2.2793192,1.88537 0.9004723,1.18187 1.294429,2.72955 0.4220977,1.51955 0.225118,3.15165 z m 13.1412637,-8.10425 h 3.010953 v 2.81398 h 0.05628 q 0.1407001,-0.59093 0.5346568,-1.15373 0.4220951,-0.56279 0.9848903,-1.01303 0.5909363,-0.47838 1.2944289,-0.75977 0.7034954,-0.2814 1.4351291,-0.2814 0.5627952,0 0.7597722,0.0281 0.2251181,0.0281 0.4502362,0.0563 v 3.09537 q -0.3376771,-0.0563 -0.7034927,-0.0844 -0.3376771,-0.0563 -0.6753542,-0.0563 -0.8160544,0 -1.5476882,0.33768 -0.7034926,0.30954 -1.2381494,0.95675 -0.5346541,0.61908 -0.8441928,1.54769 -0.3095361,0.92861 -0.3095361,2.13862 v 6.92238 h -3.2079326 z m 15.6738183,-6.0219 h 3.067235 L 8.848601,302.09248 H 5.7813685 Z m 2.842099,0.47837 H 20.8924 l 4.558641,7.09122 4.755621,-7.09122 h 3.939566 l -6.640983,9.68008 7.119358,10.41171 h -4.277244 l -5.008877,-7.68215 -5.093295,7.68215 H 16.2212 l 7.11936,-10.41171 z m 25.888598,5.54353 h 2.420019 v -4.36166 h 3.207933 v 4.36166 h 2.898396 v 2.39188 h -2.898396 v 7.76658 q 0,0.50651 0.02814,0.87233 0.05628,0.36582 0.196977,0.61907 0.168838,0.25326 0.478377,0.39396 0.309536,0.11256 0.844193,0.11256 0.337677,0 0.675354,0 0.337677,-0.0281 0.675354,-0.11256 v 2.4763 q -0.534657,0.0563 -1.041172,0.11256 -0.506516,0.0563 -1.04117,0.0563 -1.266291,0 -2.054204,-0.22512 -0.759772,-0.25326 -1.210008,-0.70349 -0.422098,-0.47838 -0.590936,-1.18187 -0.140701,-0.7035 -0.168839,-1.60397 v -8.58263 h -2.420019 z m 17.502944,14.94222 q -1.744666,0 -3.123515,-0.5628 -1.350709,-0.59093 -2.30746,-1.60396 -0.928614,-1.01304 -1.435129,-2.42002 -0.478375,-1.40699 -0.478375,-3.09538 0,-1.66024 0.478375,-3.06723 0.506515,-1.40699 1.435129,-2.42002 0.956751,-1.01303 2.30746,-1.57583 1.378849,-0.59093 3.123515,-0.59093 1.744665,0 3.095373,0.59093 1.378847,0.5628 2.307461,1.57583 0.956751,1.01303 1.435126,2.42002 0.506516,1.40699 0.506516,3.06723 0,1.68839 -0.506516,3.09538 -0.478375,1.40698 -1.435126,2.42002 -0.928614,1.01303 -2.307461,1.60396 -1.350708,0.5628 -3.095373,0.5628 z m 0,-2.53258 q 1.06931,0 1.857224,-0.45024 0.787913,-0.45023 1.294429,-1.18187 0.506515,-0.73163 0.731633,-1.6321 0.253257,-0.92862 0.253257,-1.88537 0,-0.92861 -0.253257,-1.85722 -0.225118,-0.92861 -0.731633,-1.63211 -0.506516,-0.73163 -1.294429,-1.18187 -0.787914,-0.45023 -1.857224,-0.45023 -1.069311,0 -1.857225,0.45023 -0.787913,0.45024 -1.294429,1.18187 -0.506518,0.7035 -0.759774,1.63211 -0.225118,0.92861 -0.225118,1.85722 0,0.95675 0.225118,1.88537 0.253256,0.90047 0.759774,1.6321 0.506516,0.73164 1.294429,1.18187 0.787914,0.45024 1.857225,0.45024 z m 21.80831,-9.53938 h 5.740511 q 1.266288,0 2.11048,-0.70349 0.844193,-0.73164 0.844193,-2.08235 0,-1.51954 -0.759772,-2.13862 -0.759775,-0.61907 -2.194901,-0.61907 h -5.740511 z m -3.517472,-8.41379 h 9.764498 q 2.701417,0 4.333523,1.23815 1.632107,1.23815 1.632107,3.74259 0,1.51955 -0.759775,2.617 -0.731634,1.06931 -2.110481,1.66024 v 0.0563 q 1.857224,0.39396 2.813976,1.77281 0.956752,1.35071 0.956752,3.40491 0,1.18187 -0.422098,2.22304 -0.422095,1.01303 -1.322567,1.7728 -0.900473,0.73164 -2.307461,1.18187 -1.406988,0.4221 -3.348632,0.4221 h -9.229842 z m 3.517472,17.22154 h 6.218885 q 1.603968,0 2.476299,-0.81606 0.900473,-0.84419 0.900473,-2.36374 0,-1.4914 -0.900473,-2.27932 -0.872331,-0.81605 -2.476299,-0.81605 h -6.218885 z m 15.92713,-17.22154 h 3.207931 v 20.09179 h -3.207931 z m 19.472691,20.09179 h -3.15165 v -2.02606 h -0.0563 q -0.59094,1.09745 -1.77281,1.7728 -1.15373,0.64722 -2.36374,0.64722 -2.87025,0 -4.16468,-1.40699 -1.26629,-1.43513 -1.26629,-4.30538 v -9.22985 h 3.20793 v 8.92031 q 0,1.9135 0.73164,2.70142 0.73163,0.78791 2.0542,0.78791 1.01303,0 1.68838,-0.30954 0.67536,-0.30954 1.09746,-0.81605 0.42209,-0.53466 0.59093,-1.26629 0.19698,-0.73164 0.19698,-1.57583 v -8.44193 h 3.20793 z m 13.36637,-8.55449 q -0.0563,-0.75977 -0.33769,-1.46326 -0.25326,-0.7035 -0.73163,-1.21001 -0.45024,-0.53466 -1.12559,-0.8442 -0.64722,-0.33767 -1.46328,-0.33767 -0.84418,0 -1.54768,0.30953 -0.67535,0.2814 -1.18186,0.81606 -0.47837,0.50651 -0.78791,1.21001 -0.28141,0.70349 -0.30956,1.51954 z m -7.4852,2.11048 q 0,0.8442 0.22513,1.63211 0.25326,0.78791 0.73163,1.37885 0.47839,0.59093 1.21002,0.95675 0.73163,0.33768 1.74466,0.33768 1.40698,0 2.25118,-0.59094 0.87233,-0.61907 1.29442,-1.82908 h 3.03911 q -0.25326,1.18187 -0.87233,2.11048 -0.61907,0.92861 -1.49143,1.57583 -0.87233,0.61907 -1.96977,0.92861 -1.06931,0.33768 -2.25118,0.33768 -1.71654,0 -3.03908,-0.5628 -1.32257,-0.56279 -2.25118,-1.57582 -0.90049,-1.01304 -1.37885,-2.42002 -0.45024,-1.40699 -0.45024,-3.09538 0,-1.54768 0.47836,-2.92653 0.50652,-1.40699 1.407,-2.44816 0.92861,-1.06931 2.22303,-1.68839 1.29442,-0.61907 2.92653,-0.61907 1.71654,0 3.06724,0.73163 1.37885,0.7035 2.27933,1.88537 0.90046,1.18187 1.29442,2.72955 0.42209,1.51955 0.22514,3.15165 z m 15.56128,1.77281 q 0.14071,1.40699 1.06932,1.96978 0.92863,0.5628 2.22305,0.5628 0.45024,0 1.01304,-0.0563 0.59092,-0.0844 1.09744,-0.2814 0.50652,-0.19698 0.81605,-0.56279 0.33769,-0.39396 0.30954,-1.01303 -0.0281,-0.61908 -0.45024,-1.01304 -0.42209,-0.39395 -1.09744,-0.61907 -0.64722,-0.25326 -1.4914,-0.4221 -0.84421,-0.16884 -1.71654,-0.36581 -0.90046,-0.19698 -1.74466,-0.47838 -0.81606,-0.2814 -1.49141,-0.75977 -0.64722,-0.47838 -1.04116,-1.21001 -0.39396,-0.75978 -0.39396,-1.85723 0,-1.18187 0.56279,-1.96978 0.59092,-0.81605 1.46325,-1.29443 0.90049,-0.50652 1.9698,-0.70349 1.09744,-0.19698 2.08235,-0.19698 1.12559,0 2.1386,0.25326 1.04119,0.22511 1.85724,0.75977 0.84418,0.53466 1.37885,1.40699 0.5628,0.84419 0.70348,2.0542 h -3.34862 q -0.22511,-1.15373 -1.06932,-1.54769 -0.81605,-0.39395 -1.88536,-0.39395 -0.33767,0 -0.81606,0.0563 -0.45024,0.0563 -0.87233,0.22511 -0.39394,0.1407 -0.67535,0.45024 -0.28138,0.2814 -0.28138,0.75977 0,0.59094 0.39393,0.95676 0.42209,0.36581 1.06932,0.61907 0.67535,0.22512 1.51955,0.39396 0.84418,0.16884 1.74467,0.36581 0.87233,0.19698 1.71651,0.47838 0.8442,0.2814 1.49143,0.75977 0.67535,0.47838 1.06931,1.21001 0.42209,0.73164 0.42209,1.80095 0,1.29443 -0.59095,2.1949 -0.59092,0.90047 -1.54768,1.46327 -0.92861,0.56279 -2.08235,0.81605 -1.15371,0.25326 -2.2793,0.25326 -1.37885,0 -2.56072,-0.30954 -1.15374,-0.30954 -2.02607,-0.92861 -0.84418,-0.64722 -1.3507,-1.57583 -0.47839,-0.95675 -0.50652,-2.25118 z m 12.26895,-15.42059 h 3.20791 v 11.42475 l 5.79681,-5.88122 h 3.93956 l -5.57167,5.34656 6.10632,9.2017 h -3.91142 l -4.44608,-7.06308 -1.91352,1.85722 v 5.20586 h -3.20791 z m 13.42265,5.54353 h 3.51748 l 3.79886,10.86195 h 0.0563 l 3.6863,-10.86195 h 3.34865 l -5.6561,15.33617 q -0.39394,0.98489 -0.78791,1.88537 -0.36581,0.90047 -0.92861,1.57582 -0.53467,0.7035 -1.35072,1.09746 -0.81605,0.42209 -2.08232,0.42209 -1.12559,0 -2.22306,-0.16884 v -2.70141 q 0.39397,0.0563 0.75978,0.11255 0.36581,0.0844 0.75978,0.0844 0.56279,0 0.9286,-0.1407 0.36582,-0.14069 0.59095,-0.42209 0.25326,-0.25326 0.42209,-0.61907 0.16883,-0.36582 0.30954,-0.8442 l 0.36581,-1.12559 z m 24.48158,-5.54353 h 9.59564 q 3.3205,0 4.98076,1.43513 1.66023,1.43513 1.66023,3.99585 0,1.43512 -0.42209,2.39188 -0.42209,0.92861 -0.98488,1.51954 -0.5628,0.5628 -1.12559,0.81605 -0.53467,0.25326 -0.78793,0.33768 v 0.0563 q 0.45024,0.0563 0.95676,0.2814 0.53464,0.22512 0.98488,0.73163 0.45024,0.47838 0.73165,1.26629 0.30954,0.78792 0.30954,1.96979 0,1.7728 0.25326,3.23607 0.28138,1.43513 0.84418,2.0542 h -3.77074 q -0.39393,-0.64721 -0.47836,-1.43513 -0.0563,-0.78791 -0.0563,-1.51954 0,-1.37885 -0.16883,-2.36374 -0.16886,-1.01304 -0.6191,-1.66025 -0.45021,-0.67535 -1.23814,-0.98489 -0.75978,-0.30954 -1.96977,-0.30954 h -5.17771 v 8.27309 h -3.51748 z m 3.51748,9.14542 h 5.76863 q 1.68838,0 2.56071,-0.78791 0.87233,-0.81605 0.87233,-2.42002 0,-0.95675 -0.28138,-1.54768 -0.28141,-0.61908 -0.7879,-0.95676 -0.4784,-0.33767 -1.12559,-0.45023 -0.6191,-0.11256 -1.29445,-0.11256 h -5.71235 z m 25.8323,2.39188 q -0.0563,-0.75977 -0.33766,-1.46326 -0.25326,-0.7035 -0.73163,-1.21001 -0.45024,-0.53466 -1.12559,-0.8442 -0.64722,-0.33767 -1.46328,-0.33767 -0.8442,0 -1.54768,0.30953 -0.67535,0.2814 -1.18186,0.81606 -0.4784,0.50651 -0.78793,1.21001 -0.28139,0.70349 -0.30954,1.51954 z m -7.48517,2.11048 q 0,0.8442 0.22513,1.63211 0.25326,0.78791 0.73163,1.37885 0.47837,0.59093 1.21002,0.95675 0.73162,0.33768 1.74466,0.33768 1.40698,0 2.25118,-0.59094 0.87233,-0.61907 1.29442,-1.82908 h 3.03909 q -0.25326,1.18187 -0.87233,2.11048 -0.61908,0.92861 -1.49141,1.57583 -0.87233,0.61907 -1.96977,0.92861 -1.06931,0.33768 -2.25118,0.33768 -1.71654,0 -3.03911,-0.5628 -1.32257,-0.56279 -2.25118,-1.57582 -0.90046,-1.01304 -1.37885,-2.42002 -0.45024,-1.40699 -0.45024,-3.09538 0,-1.54768 0.47839,-2.92653 0.50652,-1.40699 1.40698,-2.44816 0.92861,-1.06931 2.22305,-1.68839 1.29442,-0.61907 2.92653,-0.61907 1.71654,0 3.06724,0.73163 1.37885,0.7035 2.2793,1.88537 0.90049,1.18187 1.29445,2.72955 0.42209,1.51955 0.22511,3.15165 z m 26.84531,6.44401 h -3.03908 v -1.96978 h -0.0563 q -0.64722,1.26629 -1.88537,1.82908 -1.23814,0.53466 -2.61699,0.53466 -1.71654,0 -3.01096,-0.59094 -1.26629,-0.61907 -2.1105,-1.66024 -0.84418,-1.04118 -1.26627,-2.44816 -0.42212,-1.43513 -0.42212,-3.06724 0,-1.96978 0.53467,-3.40491 0.53465,-1.43512 1.40698,-2.36374 0.90048,-0.92861 2.02607,-1.35071 1.15375,-0.45023 2.33561,-0.45023 0.67535,0 1.37885,0.1407 0.70348,0.11256 1.3507,0.39395 0.64722,0.2814 1.18187,0.73164 0.56279,0.42209 0.92861,1.01303 h 0.0563 v -7.4289 h 3.20794 z m -11.19962,-7.11936 q 0,0.92861 0.22513,1.82909 0.25326,0.90047 0.73163,1.60396 0.50651,0.7035 1.26629,1.12559 0.75975,0.4221 1.80094,0.4221 1.06931,0 1.82909,-0.45024 0.7879,-0.45023 1.26627,-1.18187 0.50652,-0.73163 0.73165,-1.6321 0.25326,-0.92862 0.25326,-1.88537 0,-2.42002 -1.09746,-3.77073 -1.06932,-1.3507 -2.92653,-1.3507 -1.12559,0 -1.9135,0.47837 -0.75977,0.45024 -1.26629,1.21001 -0.47839,0.73164 -0.7035,1.68839 -0.19698,0.92861 -0.19698,1.9135 z m 14.77338,-12.97243 h 3.20794 v 3.0391 h -3.20794 z m 0,5.54353 h 3.20794 v 14.54826 h -3.20794 z m 6.69724,0 h 3.01095 v 2.81398 h 0.0563 q 0.14071,-0.59093 0.53464,-1.15373 0.42212,-0.56279 0.98492,-1.01303 0.59092,-0.47838 1.29442,-0.75977 0.7035,-0.2814 1.43512,-0.2814 0.5628,0 0.75978,0.0281 0.22511,0.0281 0.45024,0.0563 v 3.09537 q -0.33769,-0.0563 -0.7035,-0.0844 -0.33769,-0.0563 -0.67535,-0.0563 -0.81605,0 -1.5477,0.33768 -0.70348,0.30954 -1.23815,0.95675 -0.53464,0.61908 -0.84418,1.54769 -0.30953,0.92861 -0.30953,2.13862 v 6.92238 h -3.20794 z m 19.38829,5.99377 q -0.0563,-0.75977 -0.33766,-1.46326 -0.25326,-0.7035 -0.73165,-1.21001 -0.45024,-0.53466 -1.12559,-0.8442 -0.6472,-0.33767 -1.46325,-0.33767 -0.84421,0 -1.54771,0.30953 -0.67535,0.2814 -1.18187,0.81606 -0.47836,0.50651 -0.7879,1.21001 -0.28141,0.70349 -0.30954,1.51954 z m -7.48517,2.11048 q 0,0.8442 0.22511,1.63211 0.25326,0.78791 0.73165,1.37885 0.47837,0.59093 1.21,0.95675 0.73162,0.33768 1.74466,0.33768 1.407,0 2.25118,-0.59094 0.87233,-0.61907 1.29445,-1.82908 h 3.03908 q -0.25326,1.18187 -0.87233,2.11048 -0.61907,0.92861 -1.49141,1.57583 -0.87233,0.61907 -1.96979,0.92861 -1.06931,0.33768 -2.25118,0.33768 -1.71651,0 -3.03909,-0.5628 -1.32257,-0.56279 -2.25118,-1.57582 -0.90048,-1.01304 -1.37885,-2.42002 -0.45024,-1.40699 -0.45024,-3.09538 0,-1.54768 0.47837,-2.92653 0.50652,-1.40699 1.407,-2.44816 0.92861,-1.06931 2.22303,-1.68839 1.29445,-0.61907 2.92656,-0.61907 1.71651,0 3.06723,0.73163 1.37885,0.7035 2.27931,1.88537 0.90048,1.18187 1.29442,2.72955 0.42211,1.51955 0.22513,3.15165 z m 22.96203,-3.23607 q -0.19699,-1.3507 -1.09747,-2.02606 -0.87233,-0.70349 -2.22303,-0.70349 -0.61907,0 -1.32257,0.22511 -0.7035,0.19698 -1.29442,0.78792 -0.59095,0.56279 -0.98489,1.60396 -0.39396,1.01304 -0.39396,2.67328 0,0.90047 0.19698,1.80095 0.22511,0.90047 0.67535,1.60396 0.47837,0.7035 1.21002,1.15373 0.73162,0.4221 1.77279,0.4221 1.407,0 2.30745,-0.87233 0.92861,-0.87234 1.15375,-2.44816 h 3.20794 q -0.45024,2.84211 -2.16678,4.36166 -1.68839,1.49141 -4.50236,1.49141 -1.71651,0 -3.03909,-0.5628 -1.29444,-0.59093 -2.1949,-1.57582 -0.90048,-1.01304 -1.37885,-2.39188 -0.45024,-1.37885 -0.45024,-2.98282 0,-1.63211 0.45024,-3.06723 0.45024,-1.43513 1.3507,-2.4763 0.90048,-1.06931 2.22305,-1.66025 1.3507,-0.61907 3.15164,-0.61907 1.2663,0 2.39189,0.33767 1.15374,0.30954 2.02607,0.95676 0.90046,0.64721 1.46325,1.6321 0.5628,0.9849 0.67538,2.3356 z m 4.36168,-4.86818 h 2.42001 v -4.36166 h 3.20794 v 4.36166 h 2.89838 v 2.39188 h -2.89838 v 7.76658 q 0,0.50651 0.0281,0.87233 0.0563,0.36582 0.19698,0.61907 0.16883,0.25326 0.47836,0.39396 0.30954,0.11256 0.84421,0.11256 0.33766,0 0.67535,0 0.33769,-0.0281 0.67535,-0.11256 v 2.4763 q -0.53464,0.0563 -1.04116,0.11256 -0.50652,0.0563 -1.04119,0.0563 -1.26627,0 -2.0542,-0.22512 -0.75978,-0.25326 -1.20999,-0.70349 -0.42212,-0.47838 -0.59095,-1.18187 -0.1407,-0.7035 -0.16883,-1.60397 v -8.58263 h -2.42001 z"
       id="text1"
       style="font-size:106.355px;line-height:1;font-family:'Helvetica Neue';-inkscape-font-specification:'Helvetica Neue';letter-spacing:0px;word-spacing:0px;display:inline;stroke-width:3.7687;stroke-linejoin:round;paint-order:stroke markers fill;fill:#ffffff"
       aria-label="Twitter/X to Bluesky Redirect" />
  </g>
</svg>
