<?xml version="1.0" encoding="UTF-8" standalone="no"?>
<!-- Created with Inkscape (http://www.inkscape.org/) -->

<svg
   width="386.81754mm"
   height="85.300308mm"
   viewBox="0 0 386.81754 85.300308"
   version="1.1"
   id="svg1"
   xmlns:inkscape="http://www.inkscape.org/namespaces/inkscape"
   xmlns:sodipodi="http://sodipodi.sourceforge.net/DTD/sodipodi-0.dtd"
   xmlns:xlink="http://www.w3.org/1999/xlink"
   xmlns="http://www.w3.org/2000/svg"
   xmlns:svg="http://www.w3.org/2000/svg">
  <sodipodi:namedview
     id="namedview1"
     pagecolor="#ffffff"
     bordercolor="#000000"
     borderopacity="0.25"
     inkscape:showpageshadow="2"
     inkscape:pageopacity="0.0"
     inkscape:pagecheckerboard="0"
     inkscape:deskcolor="#d1d1d1"
     inkscape:document-units="mm">
    <inkscape:page
       x="0"
       y="0"
       width="386.81754"
       height="85.300308"
       id="page2"
       margin="0"
       bleed="0" />
  </sodipodi:namedview>
  <defs
     id="defs1">
    <linearGradient
       inkscape:collect="always"
       xlink:href="#linearGradient1"
       id="linearGradient2"
       x1="-22.197647"
       y1="83.17424"
       x2="-7.1932154"
       y2="94.744263"
       gradientUnits="userSpaceOnUse" />
    <linearGradient
       id="linearGradient1"
       inkscape:collect="always">
      <stop
         style="stop-color:#000000;stop-opacity:1;"
         offset="0"
         id="stop1" />
      <stop
         style="stop-color:#029bff;stop-opacity:1;"
         offset="1"
         id="stop2" />
    </linearGradient>
  </defs>
  <g
     inkscape:label="Layer 1"
     inkscape:groupmode="layer"
     id="layer1"
     transform="translate(47.88958,-138.64167)">
    <g
       id="g2"
       transform="matrix(1.3371655,0,0,1.3371655,15.878489,57.424758)"
       style="display:inline;fill:#029bff;fill-opacity:1">
      <path
         id="path2501"
         style="display:inline;fill:url(#linearGradient2);fill-opacity:1;stroke-width:3.43082"
         d="M -47.688988,60.73819 -19.707259,97.328087 -38.485314,124.53 h 11.356141 L -9.9595275,99.173966 -34.435768,67.174507 h 6.748392 l 20.4941606,27.569758 3.8367554,-6.10647 1.3099967,1.524094 -6.0542627,-8.04602 -1.2287955,-1.624744 -14.9406215,-19.752927 z"
         sodipodi:nodetypes="cccccccccccccc" />
      <path
         id="path1-2"
         style="display:inline;fill:#029bff;fill-opacity:1;stroke:none;stroke-width:0.0661458;stroke-linecap:butt;stroke-linejoin:miter;stroke-dasharray:none;stroke-opacity:1"
         d="M 26.178503,60.739653 C 19.882802,60.84944 11.498061,65.994981 5.6134481,75.40282 -0.7270909,85.539556 -4.5430683,90.161889 -4.5430683,90.161889 l -5.4137857,9.012077 c 0,0 9.41434078,24.369214 17.6219558,25.289584 4.5123032,0.506 7.6945272,-1.95664 10.8592582,-4.70356 4.523539,-3.92635 7.311034,-9.77589 3.539133,-14.35792 -3.653604,-4.43831 -10.922161,-5.524715 -10.922161,-5.524715 0,0 8.863262,1.164805 14.381081,-3.744664 2.813943,-2.503707 4.392259,-5.777619 4.783535,-9.565363 0.503315,-4.8723 1.324335,-14.841472 1.380935,-18.521935 0.06401,-4.16083 -1.513376,-6.942333 -4.262027,-7.248445 -0.41107,-0.04578 -0.826639,-0.06462 -1.246353,-0.0573 z"
         sodipodi:nodetypes="ssccssscssssss" />
    </g>
    <path
       style="font-size:292.952px;line-height:1;font-family:'Helvetica Neue';-inkscape-font-specification:'Helvetica Neue';letter-spacing:0px;word-spacing:0px;display:inline;fill:#35424f;stroke-width:10.3808;stroke-linejoin:round;paint-order:stroke markers fill"
       d="m 75.625799,152.71008 h 44.800911 v 8.3711 h -17.59483 v 46.97119 H 93.143108 V 161.08118 H 75.625799 Z m 37.747501,15.26951 h 9.37874 l 7.82853,29.91894 h 0.15502 l 7.51849,-29.91894 h 8.91367 l 7.20846,29.91894 h 0.15502 l 8.13856,-29.91894 h 8.9912 l -12.55668,40.07278 h -9.06867 l -7.44099,-29.76392 h -0.15502 l -7.36347,29.76392 h -9.30123 z m 64.17845,-15.26951 h 8.83616 v 8.3711 h -8.83616 z m 0,15.26951 h 8.83616 v 40.07278 h -8.83616 z m 14.41683,0 h 6.66589 V 155.9655 h 8.83615 v 12.01409 h 7.98357 v 6.58837 h -7.98357 v 21.39282 q 0,1.39518 0.0775,2.40281 0.15502,1.00764 0.54258,1.70523 0.46505,0.69759 1.31765,1.08514 0.85262,0.31004 2.32532,0.31004 0.93011,0 1.86025,0 0.93012,-0.0775 1.86024,-0.31004 v 6.8209 q -1.4727,0.15502 -2.86787,0.31004 -1.39521,0.15502 -2.86788,0.15502 -3.48797,0 -5.65824,-0.62008 -2.09278,-0.69759 -3.33296,-1.93776 -1.16266,-1.31767 -1.62772,-3.25543 -0.38753,-1.93775 -0.46505,-4.41808 v -23.64061 h -6.66589 z m 36.50734,27.20608 q 0.38756,3.87551 2.94539,5.42572 2.55784,1.5502 6.12331,1.5502 1.24015,0 2.79035,-0.15502 1.62771,-0.23253 3.02292,-0.7751 1.39517,-0.54257 2.24779,-1.5502 0.93012,-1.08515 0.85262,-2.79037 -0.0775,-1.70523 -1.24018,-2.79037 -1.16266,-1.08514 -3.02289,-1.70522 -1.78274,-0.6976 -4.10806,-1.16266 -2.32529,-0.46506 -4.7281,-1.00763 -2.48034,-0.54257 -4.80565,-1.31767 -2.2478,-0.77511 -4.10803,-2.09278 -1.78274,-1.31767 -2.86787,-3.33294 -1.08516,-2.09277 -1.08516,-5.11567 0,-3.25543 1.55022,-5.42572 1.62771,-2.24779 4.03053,-3.56547 2.48031,-1.39518 5.4257,-1.93775 3.02289,-0.54258 5.73577,-0.54258 3.10039,0 5.89076,0.6976 2.86787,0.62008 5.1157,2.09277 2.32529,1.4727 3.79798,3.87552 1.5502,2.3253 1.93776,5.65824 h -9.22372 q -0.62008,-3.17792 -2.94539,-4.26306 -2.2478,-1.08515 -5.19317,-1.08515 -0.93014,0 -2.24782,0.15503 -1.24015,0.15502 -2.40281,0.62008 -1.08514,0.38755 -1.86023,1.24016 -0.7751,0.7751 -0.7751,2.09278 0,1.62771 1.08514,2.63534 1.16265,1.00764 2.94539,1.70523 1.86023,0.62008 4.18555,1.08514 2.32529,0.46506 4.80563,1.00764 2.40281,0.54257 4.72813,1.31767 2.32529,0.7751 4.10802,2.09277 1.86026,1.31768 2.9454,3.33294 1.16266,2.01527 1.16266,4.96066 0,3.56547 -1.62772,6.04579 -1.62772,2.48033 -4.26307,4.03054 -2.55784,1.5502 -5.73575,2.24779 -3.17791,0.69759 -6.27832,0.69759 -3.79801,0 -7.05345,-0.85261 -3.17791,-0.85261 -5.58072,-2.55784 -2.32532,-1.78273 -3.72049,-4.34057 -1.31768,-2.63535 -1.39518,-6.20082 z m 33.79438,-42.47559 h 8.83616 v 31.46914 l 15.9671,-16.19963 H 297.925 l -15.34703,14.72694 16.81972,25.34584 h -10.77391 l -12.24664,-19.45507 -5.27068,5.11568 v 14.33939 h -8.83616 z m 36.97243,15.26951 h 9.68877 l 10.46388,29.91894 h 0.15502 l 10.15383,-29.91894 h 9.22372 l -15.57954,42.24307 q -1.08516,2.71285 -2.1703,5.19318 -1.00764,2.48033 -2.55783,4.34057 -1.4727,1.93776 -3.72049,3.0229 -2.24779,1.16265 -5.73574,1.16265 -3.10042,0 -6.12334,-0.46506 v -7.44098 q 1.08517,0.15502 2.09278,0.31004 1.00764,0.23253 2.0928,0.23253 1.55019,0 2.55783,-0.38755 1.00762,-0.38755 1.62772,-1.16265 0.69757,-0.69759 1.16263,-1.70523 0.46509,-1.00763 0.85262,-2.3253 l 1.00764,-3.10041 z"
       id="text2"
       aria-label="Twitsky" />
  </g>
</svg>
